<svg width="40" height="40" viewBox="0 0 40 40" fill="none" xmlns="http://www.w3.org/2000/svg">
<rect width="40" height="40" rx="10" fill="#03ACF8"/>
<path d="M29.8884 20.1068C29.8884 14.7675 25.5105 10.4379 20.109 10.4379C19.5399 10.4379 18.9813 10.4869 18.4364 10.5793C17.5624 10.0359 16.5282 9.71973 15.4196 9.71973C12.2864 9.71973 9.74753 12.2294 9.74753 15.3275C9.74753 16.3622 10.0322 17.3295 10.5268 18.1636C10.3973 18.7907 10.3283 19.4423 10.3283 20.1068C10.3283 25.4473 14.707 29.7766 20.1076 29.7766C20.7203 29.7766 21.3175 29.7197 21.8992 29.6146C22.699 30.0385 23.6099 30.2802 24.5816 30.2802C27.7137 30.2802 30.2525 27.7691 30.2525 24.6734C30.2525 23.7791 30.0399 22.9338 29.6629 22.1832C29.8117 21.5125 29.8884 20.8197 29.8884 20.1068Z" fill="white"/>
<path d="M25.1251 24.7275C24.6725 25.3609 24.005 25.8622 23.1373 26.2168C22.2798 26.569 21.2532 26.7502 20.082 26.7502C18.6773 26.7502 17.4996 26.5061 16.5796 26.0229C15.922 25.6719 15.3813 25.1978 14.9698 24.6094C14.5533 24.0181 14.3444 23.4309 14.3444 22.8617C14.3444 22.5096 14.4816 22.2012 14.7521 21.9505C15.02 21.7 15.3634 21.5755 15.7735 21.5755C16.1091 21.5755 16.3987 21.6743 16.6346 21.8709C16.8589 22.0612 17.0524 22.3412 17.2076 22.6998C17.3804 23.0929 17.5689 23.4244 17.7675 23.6826C17.9611 23.9359 18.2367 24.1467 18.5889 24.3125C18.944 24.477 19.4219 24.5631 20.009 24.5631C20.8175 24.5631 21.4814 24.3908 21.9787 24.0555C22.467 23.7277 22.7027 23.3319 22.7027 22.8487C22.7027 22.4682 22.5785 22.1678 22.3262 21.9325C22.0593 21.6858 21.7082 21.4945 21.2828 21.3621C20.8381 21.2257 20.2345 21.0767 19.4886 20.9225C18.4724 20.708 17.6098 20.455 16.9255 20.1645C16.2244 19.8688 15.6581 19.4601 15.2454 18.9501C14.825 18.4285 14.6124 17.7767 14.6124 17.0109C14.6124 16.2812 14.8353 15.6232 15.2762 15.0552C15.7131 14.4912 16.3514 14.0503 17.1756 13.7508C17.9867 13.4541 18.9517 13.305 20.0447 13.305C20.9175 13.305 21.6853 13.4052 22.3272 13.6031C22.9719 13.8009 23.5151 14.0682 23.9421 14.3986C24.3727 14.7326 24.693 15.0859 24.8928 15.456C25.0955 15.8288 25.1994 16.2003 25.1994 16.5585C25.1994 16.9042 25.0649 17.2191 24.7979 17.4915C24.5288 17.7667 24.1907 17.9052 23.7932 17.9052C23.432 17.9052 23.1474 17.8166 22.9514 17.6458C22.7683 17.4851 22.5771 17.2345 22.3669 16.8774C22.1235 16.4198 21.8274 16.0588 21.489 15.8029C21.1598 15.555 20.6112 15.4316 19.8552 15.4316C19.1555 15.4316 18.5838 15.5706 18.1609 15.8455C17.7534 16.1087 17.5548 16.4121 17.5548 16.7718C17.5548 16.9918 17.6188 17.1754 17.7507 17.3334C17.8892 17.5029 18.0853 17.6484 18.3338 17.7716C18.5903 17.899 18.8556 18.0016 19.1207 18.0735C19.3924 18.148 19.8475 18.2599 20.4741 18.4026C21.2661 18.5696 21.9927 18.7586 22.636 18.9628C23.2883 19.167 23.8498 19.4202 24.311 19.7171C24.7787 20.019 25.1492 20.4045 25.4132 20.8672C25.677 21.3337 25.8105 21.9054 25.8105 22.5711C25.8092 23.3666 25.5786 24.0928 25.1251 24.7275Z" fill="#03ACF8"/>
</svg>
