<svg width="40" height="40" viewBox="0 0 40 40" fill="none" xmlns="http://www.w3.org/2000/svg">
<rect width="40" height="40" rx="10" fill="#1E88E5"/>
<path d="M28.75 16.75L26.6667 17.8958L24.5833 19.875V26.6667H27.5C28.1904 26.6667 28.75 26.1071 28.75 25.4167V16.75Z" fill="white"/>
<path d="M11.25 16.75L12.7558 17.4625L15.4167 19.875V26.6667H12.5C11.8096 26.6667 11.25 26.1071 11.25 25.4167V16.75Z" fill="white"/>
<path d="M24.5833 14.6667L20 18.1042L15.4167 14.6667L15 17.0833L15.4167 19.875L20 23.3125L24.5833 19.875L25 17.0833L24.5833 14.6667Z" fill="white"/>
<path d="M11.25 15.1242V16.75L15.4167 19.875V14.6667L14.115 13.6913C13.805 13.4588 13.4283 13.3333 13.0408 13.3333C12.0517 13.3333 11.25 14.135 11.25 15.1242Z" fill="white"/>
<path d="M28.75 15.1242V16.75L24.5833 19.875V14.6667L25.885 13.6913C26.195 13.4588 26.5717 13.3333 26.9592 13.3333C27.9483 13.3333 28.75 14.135 28.75 15.1242Z" fill="white"/>
</svg>
